<svg width="1196" height="778" viewBox="0 0 1196 778" fill="none" xmlns="http://www.w3.org/2000/svg">
<g clip-path="url(#clip0_57_12)">
<mask id="mask0_57_12" style="mask-type:luminance" maskUnits="userSpaceOnUse" x="0" y="0" width="1196" height="778">
<path d="M1196 0H0V778H1196V0Z" fill="white"/>
</mask>
<g mask="url(#mask0_57_12)">
<path d="M171.786 0H1085.81V646.424H171.786V0Z" fill="url(#paint0_linear_57_12)"/>
<path d="M0 435.471C0 452.698 22.1864 318.164 36.0651 323.212C84.0082 340.649 92.9862 421.805 143.86 421.805C252.731 421.805 288.453 490.174 397.348 493.198C490.496 495.787 615.051 505.999 702.519 535.929C747.129 551.195 816.68 630.262 860.753 646.424C889.976 657.141 938.087 667.347 976.977 646.424C995.48 636.467 1142.66 429.189 1154.3 446.644C1168.87 468.518 1062.14 710.491 1071.65 734.281C1072.18 735.616 1078.14 750.367 1076.8 751.04C1061.22 758.896 1031.79 753.325 1014.98 754.894C962.642 759.791 910.335 763.228 857.838 766.501C668.607 778.299 475.576 780.459 285.945 775.508C222.785 773.858 159.493 767.31 97.8913 753.619C91.1229 752.115 46.3696 743.787 46.3696 734.281" fill="#97D534"/>
<path d="M36.0652 378.784C40.8568 388.37 36.0375 398.701 41.2172 408.416C46.5315 418.382 54.4283 421.63 61.8263 429.029C72.3973 439.603 77.3821 455.331 87.5868 466.39C184.059 570.924 374.508 525.929 499.76 538.459C552.006 543.681 599.297 571.63 649.173 584.838C737.614 608.253 829.869 596.429 919.66 596.429C990.72 596.429 1068.04 592.048 1133.47 624.774C1150.68 633.378 1170.19 641.696 1182.42 656.983C1183.18 657.928 1199.53 678.075 1195.3 680.17C1134.56 710.312 1066.66 715.106 999.518 722.695C948.937 728.417 898.275 734.058 847.531 738.157C765.469 744.786 684.861 746.273 602.804 739.438C518.688 732.424 434.81 721.327 350.347 718.825C305.32 717.489 255.725 723.662 211.239 716.246C174.286 710.084 136.135 688.992 103.043 672.445C93.5041 667.673 75.8114 641.153 72.1303 646.674" fill="#80C01B"/>
<path d="M331.688 538.356L351.424 393.115V537.938L331.688 538.356Z" fill="#FFFCFC"/>
<path d="M351.512 300.441L341.148 350.675L352.139 370.814L365.217 353.153L351.512 300.441ZM351.426 375.394C348.035 375.394 345.286 378.143 345.286 381.536C345.286 384.928 348.035 387.677 351.426 387.677C354.818 387.677 357.567 384.928 357.567 381.536C357.567 378.143 354.818 375.394 351.426 375.394ZM319.217 387.677L283.292 428.615L330.665 408.986L341.148 388.577L319.217 387.677ZM358.907 387.677L363.164 409.24L411.352 434.604L381.194 393.123L358.907 387.677Z" fill="#FFFCFC"/>
</g>
</g>
<defs>
<linearGradient id="paint0_linear_57_12" x1="486.592" y1="-25.3114" x2="478.709" y2="432.963" gradientUnits="userSpaceOnUse">
<stop stop-color="white" stop-opacity="0"/>
<stop offset="1" stop-color="#88E3DE"/>
</linearGradient>
<clipPath id="clip0_57_12">
<rect width="1196" height="778" fill="white"/>
</clipPath>
</defs>
</svg>
